<mxfile host="65bd71144e">
    <diagram id="zBydzTTyHDp-KQAqQjSn" name="Page-1">
        <mxGraphModel dx="585" dy="466" grid="1" gridSize="10" guides="1" tooltips="1" connect="1" arrows="1" fold="1" page="1" pageScale="1" pageWidth="827" pageHeight="1169" math="0" shadow="0">
            <root>
                <mxCell id="0"/>
                <mxCell id="1" parent="0"/>
                <mxCell id="3" value="" style="shape=cylinder3;whiteSpace=wrap;html=1;boundedLbl=1;backgroundOutline=1;size=15;" vertex="1" parent="1">
                    <mxGeometry x="180" y="190" width="60" height="80" as="geometry"/>
                </mxCell>
                <mxCell id="15" style="edgeStyle=none;html=1;exitX=1;exitY=0.75;exitDx=0;exitDy=0;entryX=0;entryY=0.75;entryDx=0;entryDy=0;" edge="1" parent="1" source="4" target="5">
                    <mxGeometry relative="1" as="geometry"/>
                </mxCell>
                <mxCell id="4" value="" style="rounded=0;whiteSpace=wrap;html=1;" vertex="1" parent="1">
                    <mxGeometry x="320" y="200" width="120" height="60" as="geometry"/>
                </mxCell>
                <mxCell id="9" style="edgeStyle=none;html=1;exitX=0;exitY=0.25;exitDx=0;exitDy=0;entryX=1;entryY=0.25;entryDx=0;entryDy=0;" edge="1" parent="1" source="5" target="4">
                    <mxGeometry relative="1" as="geometry"/>
                </mxCell>
                <mxCell id="5" value="" style="rounded=1;whiteSpace=wrap;html=1;" vertex="1" parent="1">
                    <mxGeometry x="570" y="200" width="120" height="60" as="geometry"/>
                </mxCell>
                <mxCell id="6" value="Cookies" style="whiteSpace=wrap;html=1;align=center;verticalAlign=middle;treeFolding=1;treeMoving=1;newEdgeStyle={&quot;edgeStyle&quot;:&quot;elbowEdgeStyle&quot;,&quot;startArrow&quot;:&quot;none&quot;,&quot;endArrow&quot;:&quot;none&quot;};" vertex="1" parent="1">
                    <mxGeometry x="640" y="300" width="100" height="60" as="geometry"/>
                </mxCell>
                <mxCell id="7" value="" style="edgeStyle=elbowEdgeStyle;elbow=vertical;sourcePerimeterSpacing=0;targetPerimeterSpacing=0;startArrow=none;endArrow=none;rounded=0;curved=0;exitX=0.75;exitY=1;exitDx=0;exitDy=0;" edge="1" target="6" parent="1" source="5">
                    <mxGeometry relative="1" as="geometry">
                        <mxPoint x="620" y="260" as="sourcePoint"/>
                    </mxGeometry>
                </mxCell>
                <mxCell id="10" value="JWT" style="text;html=1;strokeColor=none;fillColor=none;align=center;verticalAlign=middle;whiteSpace=wrap;rounded=0;" vertex="1" parent="1">
                    <mxGeometry x="476" y="185" width="60" height="30" as="geometry"/>
                </mxCell>
                <mxCell id="12" value="Client" style="text;html=1;strokeColor=none;fillColor=none;align=center;verticalAlign=middle;whiteSpace=wrap;rounded=0;" vertex="1" parent="1">
                    <mxGeometry x="600" y="215" width="60" height="30" as="geometry"/>
                </mxCell>
                <mxCell id="13" value="Server" style="text;html=1;strokeColor=none;fillColor=none;align=center;verticalAlign=middle;whiteSpace=wrap;rounded=0;" vertex="1" parent="1">
                    <mxGeometry x="350" y="215" width="60" height="30" as="geometry"/>
                </mxCell>
                <mxCell id="14" value="Post:&amp;nbsp;&lt;span style=&quot;color: rgb(195, 232, 141); background-color: rgb(15, 17, 26); font-family: Menlo, Monaco, &amp;quot;Courier New&amp;quot;, monospace;&quot;&gt;/user&lt;/span&gt;" style="text;html=1;strokeColor=none;fillColor=none;align=center;verticalAlign=middle;whiteSpace=wrap;rounded=0;" vertex="1" parent="1">
                    <mxGeometry x="476" y="140" width="60" height="30" as="geometry"/>
                </mxCell>
                <mxCell id="16" value="res" style="text;html=1;strokeColor=none;fillColor=none;align=center;verticalAlign=middle;whiteSpace=wrap;rounded=0;" vertex="1" parent="1">
                    <mxGeometry x="476" y="260" width="60" height="30" as="geometry"/>
                </mxCell>
                <mxCell id="17" value="&lt;div style=&quot;color: rgb(186, 190, 216); font-family: Menlo, Monaco, &amp;quot;Courier New&amp;quot;, monospace; line-height: 18px;&quot;&gt;&lt;div style=&quot;background-color: rgb(15, 17, 26); line-height: 18px;&quot;&gt;&lt;span style=&quot;color: #89ddff;&quot;&gt;{&lt;/span&gt;&lt;span style=&quot;color: #f07178;&quot;&gt; &lt;/span&gt;Error&lt;span style=&quot;color: #89ddff;&quot;&gt;:&lt;/span&gt;&lt;span style=&quot;color: #f07178;&quot;&gt; &lt;/span&gt;&lt;span style=&quot;color: #89ddff;&quot;&gt;'&lt;/span&gt;&lt;span style=&quot;color: #c3e88d;&quot;&gt;Error getting user&lt;/span&gt;&lt;span style=&quot;color: #89ddff;&quot;&gt;'&lt;/span&gt;&lt;span style=&quot;color: #f07178;&quot;&gt; &lt;/span&gt;&lt;span style=&quot;color: #89ddff;&quot;&gt;}&lt;/span&gt;&lt;/div&gt;&lt;/div&gt;" style="text;html=1;strokeColor=none;fillColor=none;align=left;verticalAlign=middle;whiteSpace=wrap;rounded=0;" vertex="1" parent="1">
                    <mxGeometry x="400" y="290" width="260" height="30" as="geometry"/>
                </mxCell>
            </root>
        </mxGraphModel>
    </diagram>
</mxfile>